<svg id="Layer_1" data-name="Layer 1" xmlns="http://www.w3.org/2000/svg" viewBox="0 0 2000 2000"><rect x="475.9" y="466.75" width="1045" height="99"/><path d="M1622.32,907.07a153.38,153.38,0,0,1-295.52,57.67l-20-49.23a155.68,155.68,0,0,1-307.31,13.9,155.68,155.68,0,0,1-164.17,135.64c-84.29-5.28-132.47-84.51-133.94-162.4.1,5.33-7,15.36-9.13,20.44-3.17,7.41-6.22,14.87-9.48,22.25-17,38.5-41.82,78.13-80,98.5A153,153,0,0,1,388.92,851.36L475.79,637l.11,0v-.18H1520.28l2.09-.87,88.18,212.31A153,153,0,0,1,1622.32,907.07Z"/><polygon points="474.9 1144.75 474.9 1473.75 534.4 1533.25 1484.9 1533.25 1525.65 1492.5 1525.65 1150.75 1419.9 1150.75 1419.9 1459.75 594.9 1459.75 594.9 1144.75 474.9 1144.75"/></svg>